<mxfile host="app.diagrams.net" modified="2021-09-18T14:18:16.715Z" agent="5.0 (Windows NT 10.0; Win64; x64) AppleWebKit/537.36 (KHTML, like Gecko) Chrome/93.0.4577.82 Safari/537.36" etag="NdGyBIojabwifcT5MJwz" version="15.2.9" type="github">
  <diagram id="ObF8CjsgexFuVsKeyX0L" name="Page-1">
    <mxGraphModel dx="1022" dy="513" grid="1" gridSize="10" guides="1" tooltips="1" connect="1" arrows="1" fold="1" page="1" pageScale="1" pageWidth="850" pageHeight="1100" math="0" shadow="0">
      <root>
        <mxCell id="0" />
        <mxCell id="1" parent="0" />
      </root>
    </mxGraphModel>
  </diagram>
</mxfile>
